{"title":"Underworld.Awakening.2012.CAM.V2.AC3.H264-CRYS","uid":7017890,"size":731067301,"categoryP":"video","categoryS":"movies","magnet":"?xt=urn:btih:90d87e59e0e4f7bb7189f4277cb4712f37ecc9fd&amp;dn=Underworld.Awakening.2012.CAM.V2.AC3.H264-CRYS&amp;tr=udp%3A%2F%2Ftracker.openbittorrent.com%3A80&amp;tr=udp%3A%2F%2Fopen.demonii.com%3A1337&amp;tr=udp%3A%2F%2Ftracker.coppersurfer.tk%3A6969&amp;tr=udp%3A%2F%2Fexodus.desync.com%3A6969","seeders":1,"leechers":0,"uploader":".BONE.","files":3,"time":1328726372,"description":"Plot : When human forces discover the existence of the Vampire and Lycan clans, a war to eradicate both species commences. The vampire warrioress Selene leads the battle against humankind.\n\n\nDirectors: MÃƒÂ¥ns MÃƒÂ¥rlind, BjÃƒÂ¶rn Stein\nWriters: Len Wiseman (screenplay), John Hlavin (screenplay)Stars:Kate Beckinsale, Michael Ealy and India Eisley \n\n &lt;a href=&quot;\nhttp://www.imdb.com/title/tt1496025/&quot; rel=&quot;nofollow&quot; target=&quot;_NEW&quot;&gt;\nhttp://www.imdb.com/title/tt1496025/&lt;/a&gt;\n\n\nFormat : Matroska\nFile size : 697 MiB\nDuration : 1h 16mn\nOverall bit rate : 1 279 Kbps\nEncoded date : UTC 2012-02-03 10:48:26\nWriting library : WonderShare Matroska Muxer\n\nVideo\nID : 1\nFormat : AVC\nFormat/Info : Advanced Video Codec\nFormat profile : &lt;a class=&quot;__cf_email__&quot; href=&quot;/cdn-cgi/l/email-protection&quot; data-cfemail=&quot;d89ab9abbdb4b1b6bd9894ebf6e8&quot;&gt;[email&amp;#160;protected]&lt;/a&gt;&lt;script cf-hash='f9e31' type=&quot;text/javascript&quot;&gt;\n/* &lt;![CDATA[ */!function(){try{var t=&quot;currentScript&quot;in document?document.currentScript:function(){for(var t=document.getElementsByTagName(&quot;script&quot;),e=t.length;e--;)if(t[e].getAttribute(&quot;cf-hash&quot;))return t[e]}();if(t&amp;&amp;t.previousSibling){var e,r,n,i,c=t.previousSibling,a=c.getAttribute(&quot;data-cfemail&quot;);if(a){for(e=&quot;&quot;,r=parseInt(a.substr(0,2),16),n=2;a.length-n;n+=2)i=parseInt(a.substr(n,2),16)^r,e+=String.fromCharCode(i);e=document.createTextNode(e),c.parentNode.replaceChild(e,c)}}}catch(u){}}();/* ]]&gt; */&lt;/script&gt;\nFormat settings, CABAC : No\nFormat settings, ReFrames : 1 frame\nMuxing mode : Container profile=&lt;a class=&quot;__cf_email__&quot; href=&quot;/cdn-cgi/l/email-protection&quot; data-cfemail=&quot;25704b4e4b4a524b65160b15&quot;&gt;[email&amp;#160;protected]&lt;/a&gt;&lt;script cf-hash='f9e31' type=&quot;text/javascript&quot;&gt;\n/* &lt;![CDATA[ */!function(){try{var t=&quot;currentScript&quot;in document?document.currentScript:function(){for(var t=document.getElementsByTagName(&quot;script&quot;),e=t.length;e--;)if(t[e].getAttribute(&quot;cf-hash&quot;))return t[e]}();if(t&amp;&amp;t.previousSibling){var e,r,n,i,c=t.previousSibling,a=c.getAttribute(&quot;data-cfemail&quot;);if(a){for(e=&quot;&quot;,r=parseInt(a.substr(0,2),16),n=2;a.length-n;n+=2)i=parseInt(a.substr(n,2),16)^r,e+=String.fromCharCode(i);e=document.createTextNode(e),c.parentNode.replaceChild(e,c)}}}catch(u){}}();/* ]]&gt; */&lt;/script&gt;\nCodec ID : V_MPEG4/ISO/AVC\nDuration : 1h 16mn\nBit rate : 1 126 Kbps\nWidth : 720 pixels\nHeight : 304 pixels\nDisplay aspect ratio : 2.35:1\nFrame rate : 23.976 fps\nOriginal frame rate : 23.000 fps\nResolution : 24 bits\nColorimetry : 4:2:0\nScan type : Progressive\nBits/(Pixel*Frame) : 0.215\nStream size : 613 MiB (88%)\n\nAudio\nID : 2\nFormat : AC-3\nFormat/Info : Audio Coding 3\nCodec ID : A_AC3\nDuration : 1h 16mn\nBit rate mode : Constant\nBit rate : 128 Kbps\nChannel(s) : 2 channels\nChannel positions : L R\nSampling rate : 48.0 KHz\nResolution : 16 bits\nStream size : 69.7 MiB (10%)\n &lt;a href=&quot;\nhttp://www.prikachi.com/images/835/4371835D.jpg&quot; rel=&quot;nofollow&quot; target=&quot;_NEW&quot;&gt;\nhttp://www.prikachi.com/images/835/4371835D.jpg&lt;/a&gt; &lt;a href=&quot;\nhttp://www.prikachi.com/images/839/4371839A.jpg&quot; rel=&quot;nofollow&quot; target=&quot;_NEW&quot;&gt;\nhttp://www.prikachi.com/images/839/4371839A.jpg&lt;/a&gt; &lt;a href=&quot;\nhttp://www.prikachi.com/images/840/4371840l.jpg&quot; rel=&quot;nofollow&quot; target=&quot;_NEW&quot;&gt;\nhttp://www.prikachi.com/images/840/4371840l.jpg&lt;/a&gt; &lt;a href=&quot;\nhttp://www.prikachi.com/images/838/4371838z.jpg&quot; rel=&quot;nofollow&quot; target=&quot;_NEW&quot;&gt;\nhttp://www.prikachi.com/images/838/4371838z.jpg&lt;/a&gt; &lt;a href=&quot;\nhttp://www.prikachi.com/images/832/4371832f.jpg&quot; rel=&quot;nofollow&quot; target=&quot;_NEW&quot;&gt;\nhttp://www.prikachi.com/images/832/4371832f.jpg&lt;/a&gt;","torrent":{"xt":"urn:btih:90d87e59e0e4f7bb7189f4277cb4712f37ecc9fd","amp;dn":"Underworld.Awakening.2012.CAM.V2.AC3.H264-CRYS","amp;tr":["udp%3A%2F%2Ftracker.openbittorrent.com%3A80","udp%3A%2F%2Fopen.demonii.com%3A1337","udp%3A%2F%2Ftracker.coppersurfer.tk%3A6969","udp%3A%2F%2Fexodus.desync.com%3A6969"],"infoHash":"90d87e59e0e4f7bb7189f4277cb4712f37ecc9fd","infoHashBuffer":{"type":"Buffer","data":[144,216,126,89,224,228,247,187,113,137,244,39,124,180,113,47,55,236,201,253]},"announce":[],"urlList":[]}}